<?xml version="1.0" encoding="utf-8"?>
<!-- Generator: Adobe Illustrator 26.2.1, SVG Export Plug-In . SVG Version: 6.00 Build 0)  -->
<svg version="1.1" id="Calque_1" xmlns="http://www.w3.org/2000/svg" xmlns:xlink="http://www.w3.org/1999/xlink" x="0px" y="0px"
	 viewBox="0 0 100 25" style="enable-background:new 0 0 100 25;" xml:space="preserve">
<style type="text/css">
	.st0{fill:#FFFFFF;}
</style>
<path class="st0" d="M4,14c0.1,0.9,0.4,1.5,1,2c0.6,0.5,1.3,0.7,2.1,0.7c0.7,0,1.3-0.1,1.8-0.4c0.5-0.3,0.9-0.7,1.3-1.1l2.1,1.6
	c-0.7,0.8-1.4,1.4-2.3,1.8c-0.8,0.4-1.7,0.5-2.6,0.5c-0.9,0-1.7-0.1-2.5-0.4c-0.8-0.3-1.4-0.7-2-1.2c-0.6-0.5-1-1.2-1.4-1.9
	c-0.3-0.8-0.5-1.6-0.5-2.5c0-0.9,0.2-1.7,0.5-2.5c0.3-0.8,0.8-1.4,1.4-1.9c0.6-0.5,1.2-0.9,2-1.2c0.8-0.3,1.6-0.4,2.5-0.4
	c0.8,0,1.5,0.1,2.2,0.4c0.7,0.3,1.2,0.7,1.7,1.2c0.5,0.5,0.9,1.2,1.1,2c0.3,0.8,0.4,1.7,0.4,2.7V14H4z M9.9,11.8
	c0-0.9-0.3-1.5-0.8-2C8.6,9.3,7.9,9.1,6.9,9.1c-0.9,0-1.6,0.2-2.1,0.7c-0.5,0.5-0.8,1.2-0.9,2H9.9z M34.9,7.2h2.7v1.9h0
	C38,8.5,38.4,8,38.9,7.6c0.6-0.4,1.3-0.7,2.3-0.7c0.8,0,1.4,0.1,2,0.4c0.5,0.3,1,0.6,1.3,1s0.6,0.9,0.7,1.4c0.1,0.5,0.2,1.1,0.2,1.7
	v7.3h-2.9v-5.9c0-0.3,0-0.7,0-1.1c0-0.4-0.1-0.8-0.3-1.1c-0.1-0.4-0.3-0.6-0.6-0.9c-0.3-0.2-0.7-0.4-1.2-0.4c-0.5,0-0.9,0.1-1.2,0.2
	c-0.3,0.2-0.6,0.4-0.8,0.7c-0.2,0.3-0.4,0.6-0.5,0.9c-0.1,0.4-0.1,0.7-0.1,1.1v6.3h-2.9V7.2z M54.4,10.4c-0.6-0.8-1.3-1.2-2.3-1.2
	c-0.4,0-0.8,0.1-1.1,0.3c-0.4,0.2-0.6,0.5-0.6,0.9c0,0.4,0.2,0.6,0.5,0.8c0.3,0.2,0.7,0.3,1.2,0.4c0.5,0.1,1,0.2,1.5,0.4
	c0.5,0.1,1.1,0.3,1.5,0.6c0.5,0.2,0.9,0.6,1.2,1c0.3,0.4,0.5,1,0.5,1.8c0,0.7-0.2,1.3-0.5,1.8c-0.3,0.5-0.7,0.8-1.2,1.1
	c-0.5,0.3-1,0.5-1.6,0.6c-0.6,0.1-1.2,0.2-1.8,0.2c-0.9,0-1.7-0.1-2.5-0.4c-0.8-0.3-1.4-0.7-2-1.4l1.9-1.8c0.4,0.4,0.8,0.8,1.2,1
	c0.4,0.3,1,0.4,1.6,0.4c0.2,0,0.4,0,0.7-0.1c0.2,0,0.4-0.1,0.6-0.2c0.2-0.1,0.3-0.2,0.5-0.4c0.1-0.2,0.2-0.4,0.2-0.6
	c0-0.4-0.2-0.7-0.5-0.9c-0.3-0.2-0.7-0.3-1.2-0.5c-0.5-0.1-1-0.2-1.5-0.3c-0.5-0.1-1-0.3-1.5-0.5c-0.5-0.2-0.9-0.6-1.2-1
	c-0.3-0.4-0.5-1-0.5-1.7c0-0.6,0.1-1.2,0.4-1.7c0.3-0.5,0.6-0.9,1.1-1.2c0.4-0.3,0.9-0.5,1.5-0.7c0.6-0.1,1.1-0.2,1.7-0.2
	c0.8,0,1.5,0.1,2.3,0.4c0.8,0.3,1.4,0.7,1.8,1.4L54.4,10.4z M58.5,7.2h2.9v11.6h-2.9V7.2z M58.1,3.3c0-0.5,0.2-0.9,0.5-1.2
	c0.4-0.4,0.8-0.5,1.3-0.5c0.5,0,1,0.2,1.3,0.5c0.4,0.3,0.6,0.7,0.6,1.2s-0.2,0.9-0.6,1.3C60.9,4.9,60.5,5,59.9,5
	c-0.5,0-1-0.2-1.3-0.5C58.3,4.2,58.1,3.7,58.1,3.3z M76.1,7.2v10.5c0,1-0.1,2-0.4,2.8c-0.3,0.9-0.7,1.6-1.2,2.1
	c-0.5,0.6-1.2,1.1-2,1.4c-0.8,0.3-1.8,0.5-2.9,0.5c-1.1,0-2.1-0.1-3.1-0.4c-1-0.3-1.9-0.8-2.7-1.5l1.7-2.4c0.6,0.5,1.2,0.9,1.8,1.2
	c0.6,0.3,1.4,0.4,2.2,0.4c0.7,0,1.3-0.1,1.7-0.3c0.5-0.2,0.9-0.5,1.1-0.8c0.3-0.3,0.5-0.7,0.6-1.2c0.1-0.5,0.2-1,0.2-1.6v-0.8h0
	c-0.4,0.6-1,1-1.7,1.3c-0.7,0.3-1.4,0.4-2.1,0.4c-0.9,0-1.7-0.2-2.4-0.5c-0.7-0.3-1.3-0.7-1.8-1.3c-0.5-0.5-0.9-1.2-1.2-1.9
	c-0.3-0.7-0.4-1.5-0.4-2.3c0-0.9,0.1-1.6,0.4-2.4c0.3-0.7,0.6-1.4,1.1-1.9c0.5-0.5,1.1-1,1.8-1.3c0.7-0.3,1.5-0.5,2.4-0.5
	c0.8,0,1.6,0.2,2.3,0.5c0.7,0.3,1.3,0.8,1.7,1.5h0V7.2H76.1z M70,9.5c-0.5,0-1,0.1-1.4,0.3c-0.4,0.2-0.8,0.4-1.1,0.7
	c-0.3,0.3-0.5,0.7-0.7,1.1c-0.2,0.4-0.2,0.9-0.2,1.4c0,0.5,0.1,0.9,0.2,1.3c0.2,0.4,0.4,0.8,0.7,1.1c0.3,0.3,0.7,0.5,1.1,0.7
	c0.4,0.2,0.9,0.3,1.4,0.3c0.5,0,1-0.1,1.4-0.3c0.4-0.2,0.8-0.4,1.1-0.7c0.3-0.3,0.5-0.7,0.7-1.1c0.2-0.4,0.2-0.9,0.2-1.4
	c0-1-0.3-1.8-0.9-2.5C71.9,9.8,71,9.5,70,9.5z M81.8,8.8L81.8,8.8c0.3-0.5,0.7-0.9,1.2-1.3c0.6-0.4,1.3-0.6,2.2-0.6
	c0.8,0,1.4,0.1,2,0.4c0.5,0.3,1,0.6,1.3,1s0.6,0.9,0.7,1.4c0.1,0.5,0.2,1.1,0.2,1.7v7.3h-2.9v-5.9c0-0.3,0-0.7,0-1.1
	c0-0.4-0.1-0.8-0.3-1.1c-0.1-0.4-0.3-0.6-0.6-0.9c-0.3-0.2-0.7-0.4-1.2-0.4c-0.5,0-0.9,0.1-1.2,0.2c-0.3,0.2-0.6,0.4-0.8,0.7
	c-0.2,0.3-0.4,0.6-0.5,0.9c-0.1,0.4-0.1,0.7-0.1,1.1v6.3h-2.9V0.5h2.9V8.8z M90.9,9.7V7.2h2.4V3.9h2.9v3.4h3.2v2.5h-3.2v5.1
	c0,0.6,0.1,1,0.3,1.4c0.2,0.3,0.7,0.5,1.3,0.5c0.3,0,0.5,0,0.8-0.1c0.3-0.1,0.5-0.2,0.7-0.3v2.4c-0.3,0.1-0.7,0.2-1.1,0.3
	c-0.4,0.1-0.8,0.1-1.2,0.1c-0.8,0-1.4-0.1-1.9-0.3c-0.5-0.2-0.9-0.4-1.2-0.7c-0.3-0.4-0.5-0.8-0.6-1.3c-0.1-0.5-0.1-1.1-0.1-1.8V9.7
	H90.9z"/>
<path class="st0" d="M23.6,18.6c-4.8,0-8.8-3.9-8.8-8.8c0-4.8,3.9-8.8,8.8-8.8s8.8,3.9,8.8,8.8C32.4,14.6,28.5,18.6,23.6,18.6z
	 M23.6,4c-3.2,0-5.8,2.6-5.8,5.8s2.6,5.8,5.8,5.8s5.8-2.6,5.8-5.8S26.8,4,23.6,4z"/>
</svg>
